<svg xmlns="http://www.w3.org/2000/svg" viewBox="0 0 1600 1000" width="1600" height="1000" font-family="monospace">
<rect width="1600" height="1000" fill="#0b100e"/>
<rect width="1600" height="56" fill="#111a16"/><rect y="56" width="1600" height="1" fill="#1f2b26"/>
<circle cx="32" cy="28" r="7" fill="#ff5f56"/><circle cx="54" cy="28" r="7" fill="#ffbd2e"/><circle cx="76" cy="28" r="7" fill="#27c93f"/>
<text x="110" y="35" fill="#5f7068" font-size="20">music companion — vinyl wall</text>
<rect x="40" y="90" width="160" height="160" rx="6" fill="#2e4a3f"/><rect x="40" y="264" width="130" height="12" rx="6.0" fill="#e7f3ee" opacity="0.5"/><rect x="40" y="284" width="90" height="10" rx="5.0" fill="#5f7068" opacity="0.5"/><rect x="220" y="90" width="160" height="160" rx="6" fill="#4a2e3a"/><rect x="220" y="264" width="130" height="12" rx="6.0" fill="#e7f3ee" opacity="0.5"/><rect x="220" y="284" width="90" height="10" rx="5.0" fill="#5f7068" opacity="0.5"/><rect x="400" y="90" width="160" height="160" rx="6" fill="#2e3a4a"/><rect x="400" y="264" width="130" height="12" rx="6.0" fill="#e7f3ee" opacity="0.5"/><rect x="400" y="284" width="90" height="10" rx="5.0" fill="#5f7068" opacity="0.5"/><rect x="580" y="90" width="160" height="160" rx="6" fill="#4a432e"/><rect x="580" y="264" width="130" height="12" rx="6.0" fill="#e7f3ee" opacity="0.5"/><rect x="580" y="284" width="90" height="10" rx="5.0" fill="#5f7068" opacity="0.5"/><rect x="760" y="90" width="160" height="160" rx="6" fill="#3a2e4a"/><rect x="760" y="264" width="130" height="12" rx="6.0" fill="#e7f3ee" opacity="0.5"/><rect x="760" y="284" width="90" height="10" rx="5.0" fill="#5f7068" opacity="0.5"/><rect x="940" y="90" width="160" height="160" rx="6" fill="#2e4a4a"/><rect x="940" y="264" width="130" height="12" rx="6.0" fill="#e7f3ee" opacity="0.5"/><rect x="940" y="284" width="90" height="10" rx="5.0" fill="#5f7068" opacity="0.5"/><rect x="40" y="306" width="160" height="160" rx="6" fill="#2e4a3f"/><rect x="40" y="480" width="130" height="12" rx="6.0" fill="#e7f3ee" opacity="0.5"/><rect x="40" y="500" width="90" height="10" rx="5.0" fill="#5f7068" opacity="0.5"/><rect x="220" y="306" width="160" height="160" rx="6" fill="#4a2e3a"/><rect x="220" y="480" width="130" height="12" rx="6.0" fill="#e7f3ee" opacity="0.5"/><rect x="220" y="500" width="90" height="10" rx="5.0" fill="#5f7068" opacity="0.5"/><rect x="400" y="306" width="160" height="160" rx="6" fill="#2e3a4a"/><rect x="400" y="480" width="130" height="12" rx="6.0" fill="#e7f3ee" opacity="0.5"/><rect x="400" y="500" width="90" height="10" rx="5.0" fill="#5f7068" opacity="0.5"/><rect x="580" y="306" width="160" height="160" rx="6" fill="#4a432e"/><rect x="580" y="480" width="130" height="12" rx="6.0" fill="#e7f3ee" opacity="0.5"/><rect x="580" y="500" width="90" height="10" rx="5.0" fill="#5f7068" opacity="0.5"/><rect x="760" y="306" width="160" height="160" rx="6" fill="#3a2e4a"/><rect x="760" y="480" width="130" height="12" rx="6.0" fill="#e7f3ee" opacity="0.5"/><rect x="760" y="500" width="90" height="10" rx="5.0" fill="#5f7068" opacity="0.5"/><rect x="940" y="306" width="160" height="160" rx="6" fill="#2e4a4a"/><rect x="940" y="480" width="130" height="12" rx="6.0" fill="#e7f3ee" opacity="0.5"/><rect x="940" y="500" width="90" height="10" rx="5.0" fill="#5f7068" opacity="0.5"/><rect x="40" y="522" width="160" height="160" rx="6" fill="#2e4a3f"/><rect x="40" y="696" width="130" height="12" rx="6.0" fill="#e7f3ee" opacity="0.5"/><rect x="40" y="716" width="90" height="10" rx="5.0" fill="#5f7068" opacity="0.5"/><rect x="220" y="522" width="160" height="160" rx="6" fill="#4a2e3a"/><rect x="220" y="696" width="130" height="12" rx="6.0" fill="#e7f3ee" opacity="0.5"/><rect x="220" y="716" width="90" height="10" rx="5.0" fill="#5f7068" opacity="0.5"/><rect x="400" y="522" width="160" height="160" rx="6" fill="#2e3a4a"/><rect x="400" y="696" width="130" height="12" rx="6.0" fill="#e7f3ee" opacity="0.5"/><rect x="400" y="716" width="90" height="10" rx="5.0" fill="#5f7068" opacity="0.5"/><rect x="580" y="522" width="160" height="160" rx="6" fill="#4a432e"/><rect x="580" y="696" width="130" height="12" rx="6.0" fill="#e7f3ee" opacity="0.5"/><rect x="580" y="716" width="90" height="10" rx="5.0" fill="#5f7068" opacity="0.5"/><rect x="760" y="522" width="160" height="160" rx="6" fill="#3a2e4a"/><rect x="760" y="696" width="130" height="12" rx="6.0" fill="#e7f3ee" opacity="0.5"/><rect x="760" y="716" width="90" height="10" rx="5.0" fill="#5f7068" opacity="0.5"/><rect x="940" y="522" width="160" height="160" rx="6" fill="#2e4a4a"/><rect x="940" y="696" width="130" height="12" rx="6.0" fill="#e7f3ee" opacity="0.5"/><rect x="940" y="716" width="90" height="10" rx="5.0" fill="#5f7068" opacity="0.5"/><rect x="40" y="738" width="160" height="160" rx="6" fill="#2e4a3f"/><rect x="40" y="912" width="130" height="12" rx="6.0" fill="#e7f3ee" opacity="0.5"/><rect x="40" y="932" width="90" height="10" rx="5.0" fill="#5f7068" opacity="0.5"/><rect x="220" y="738" width="160" height="160" rx="6" fill="#4a2e3a"/><rect x="220" y="912" width="130" height="12" rx="6.0" fill="#e7f3ee" opacity="0.5"/><rect x="220" y="932" width="90" height="10" rx="5.0" fill="#5f7068" opacity="0.5"/><rect x="400" y="738" width="160" height="160" rx="6" fill="#2e3a4a"/><rect x="400" y="912" width="130" height="12" rx="6.0" fill="#e7f3ee" opacity="0.5"/><rect x="400" y="932" width="90" height="10" rx="5.0" fill="#5f7068" opacity="0.5"/><rect x="580" y="738" width="160" height="160" rx="6" fill="#4a432e"/><rect x="580" y="912" width="130" height="12" rx="6.0" fill="#e7f3ee" opacity="0.5"/><rect x="580" y="932" width="90" height="10" rx="5.0" fill="#5f7068" opacity="0.5"/><rect x="760" y="738" width="160" height="160" rx="6" fill="#3a2e4a"/><rect x="760" y="912" width="130" height="12" rx="6.0" fill="#e7f3ee" opacity="0.5"/><rect x="760" y="932" width="90" height="10" rx="5.0" fill="#5f7068" opacity="0.5"/><rect x="940" y="738" width="160" height="160" rx="6" fill="#2e4a4a"/><rect x="940" y="912" width="130" height="12" rx="6.0" fill="#e7f3ee" opacity="0.5"/><rect x="940" y="932" width="90" height="10" rx="5.0" fill="#5f7068" opacity="0.5"/><rect x="1140" y="90" width="420" height="400" rx="10" fill="#111a16" stroke="#1f2b26"/><text x="1164" y="132" fill="#5f7068" font-size="20" text-anchor="start" font-weight="normal">This year</text><text x="1164" y="200" fill="#35e0a0" font-size="52" text-anchor="start" font-weight="bold">12,408</text><text x="1164" y="236" fill="#5f7068" font-size="18" text-anchor="start" font-weight="normal">scrobbles</text><rect x="1170" y="380" width="22" height="80" rx="3" fill="#35e0a0" opacity=".75"/><rect x="1202" y="320" width="22" height="140" rx="3" fill="#35e0a0" opacity=".75"/><rect x="1234" y="350" width="22" height="110" rx="3" fill="#35e0a0" opacity=".75"/><rect x="1266" y="270" width="22" height="190" rx="3" fill="#35e0a0" opacity=".75"/><rect x="1298" y="300" width="22" height="160" rx="3" fill="#35e0a0" opacity=".75"/><rect x="1330" y="240" width="22" height="220" rx="3" fill="#35e0a0" opacity=".75"/><rect x="1362" y="330" width="22" height="130" rx="3" fill="#35e0a0" opacity=".75"/><rect x="1394" y="290" width="22" height="170" rx="3" fill="#35e0a0" opacity=".75"/><rect x="1426" y="370" width="22" height="90" rx="3" fill="#35e0a0" opacity=".75"/><rect x="1458" y="260" width="22" height="200" rx="3" fill="#35e0a0" opacity=".75"/><rect x="1490" y="310" width="22" height="150" rx="3" fill="#35e0a0" opacity=".75"/><rect x="1522" y="340" width="22" height="120" rx="3" fill="#35e0a0" opacity=".75"/><rect x="1140" y="510" width="420" height="450" rx="10" fill="#111a16" stroke="#1f2b26"/><text x="1164" y="552" fill="#5f7068" font-size="20" text-anchor="start" font-weight="normal">Top artists</text><text x="1164" y="600" fill="#35e0a0" font-size="20" text-anchor="start" font-weight="normal">01</text><rect x="1214" y="587" width="240" height="16" rx="8.0" fill="#e7f3ee" opacity="0.55"/><text x="1164" y="658" fill="#35e0a0" font-size="20" text-anchor="start" font-weight="normal">02</text><rect x="1214" y="645" width="200" height="16" rx="8.0" fill="#e7f3ee" opacity="0.55"/><text x="1164" y="716" fill="#35e0a0" font-size="20" text-anchor="start" font-weight="normal">03</text><rect x="1214" y="703" width="260" height="16" rx="8.0" fill="#e7f3ee" opacity="0.55"/><text x="1164" y="774" fill="#35e0a0" font-size="20" text-anchor="start" font-weight="normal">04</text><rect x="1214" y="761" width="170" height="16" rx="8.0" fill="#e7f3ee" opacity="0.55"/><text x="1164" y="832" fill="#35e0a0" font-size="20" text-anchor="start" font-weight="normal">05</text><rect x="1214" y="819" width="220" height="16" rx="8.0" fill="#e7f3ee" opacity="0.55"/><text x="1164" y="890" fill="#35e0a0" font-size="20" text-anchor="start" font-weight="normal">06</text><rect x="1214" y="877" width="150" height="16" rx="8.0" fill="#e7f3ee" opacity="0.55"/>
<text x="1576" y="980" fill="#5f7068" font-size="18" text-anchor="end" opacity=".6">PLACEHOLDER SCREENSHOT</text>
</svg>